<?xml version="1.0" standalone="no"?>
<!DOCTYPE svg PUBLIC "-//W3C//DTD SVG 20010904//EN"
 "http://www.w3.org/TR/2001/REC-SVG-20010904/DTD/svg10.dtd">
<svg version="1.0" xmlns="http://www.w3.org/2000/svg"
 width="206.000000pt" height="206.000000pt" viewBox="0 0 206.000000 206.000000"
 preserveAspectRatio="xMidYMid meet">
<metadata>
Created by potrace 1.14, written by Peter Selinger 2001-2017
</metadata>
<g transform="translate(0.000000,206.000000) scale(0.100000,-0.100000)"
fill="#000000" stroke="none">
<path d="M0 1271 l0 -789 84 56 84 56 -16 31 c-13 23 -17 55 -17 135 1 101 2
107 37 171 33 62 36 71 31 130 -5 62 -4 67 47 164 33 63 62 135 77 195 25 99
53 157 106 216 34 40 188 160 199 157 4 -2 10 7 13 18 6 19 116 97 157 112 10
3 45 28 77 54 33 26 82 55 108 65 46 16 30 16 -469 17 l-518 1 0 -789z"/>
<path d="M1235 2043 c85 -34 194 -134 235 -213 10 -20 29 -41 42 -48 26 -14
176 -235 194 -285 6 -18 10 -45 7 -62 -3 -26 5 -39 58 -95 108 -114 156 -258
125 -377 -14 -57 -14 -59 9 -83 63 -69 101 -228 76 -316 -8 -28 -7 -30 13 -27
13 3 28 -2 35 -11 8 -9 17 -16 22 -16 5 0 9 337 9 775 l0 775 -432 -1 c-408 0
-431 -1 -393 -16z"/>
<path d="M1056 1663 c-4 -4 -24 -8 -45 -9 -34 -2 -53 -10 -123 -50 -34 -20
-68 -57 -68 -75 0 -17 -29 -47 -39 -40 -9 6 -47 -69 -57 -114 -5 -21 -16 -41
-23 -43 -8 -3 -11 0 -7 7 4 6 3 11 -3 11 -17 0 -31 -37 -29 -72 2 -26 -1 -33
-14 -32 -10 1 -18 -4 -18 -11 0 -7 -6 -15 -13 -18 -11 -4 -12 -20 -5 -76 7
-58 5 -77 -8 -103 -12 -24 -15 -46 -10 -90 5 -51 3 -59 -14 -68 -23 -12 -25
-39 -8 -87 10 -27 10 -38 0 -53 -16 -26 -15 -61 3 -84 8 -11 15 -33 15 -48 0
-31 39 -78 63 -78 9 0 20 -19 28 -45 7 -25 16 -45 20 -45 4 0 10 16 13 35 l7
35 37 -19 c21 -10 71 -29 111 -41 65 -20 88 -22 186 -17 116 6 185 27 255 77
40 29 48 25 56 -25 7 -51 32 -61 53 -22 8 15 39 33 86 52 73 29 74 31 85 75 5
25 10 61 10 80 0 19 -1 51 -1 70 -1 50 -18 112 -30 105 -16 -10 -22 25 -10 53
9 18 9 28 2 30 -6 2 -11 15 -11 28 0 14 -7 41 -15 61 -8 19 -15 48 -15 64 0
16 -4 29 -10 29 -5 0 -10 8 -10 18 0 9 -9 31 -20 47 -11 17 -20 43 -20 59 0
21 -4 27 -15 22 -16 -6 -32 35 -21 52 3 6 -10 33 -29 62 -19 29 -35 59 -35 69
0 21 -55 79 -108 114 -24 15 -46 35 -49 43 -3 8 -34 28 -70 44 -73 34 -67 32
-77 23z m119 -224 c4 -6 13 -8 20 -5 8 3 11 -2 8 -15 -6 -23 -21 -25 -29 -4
-4 8 -12 15 -20 15 -8 0 -14 5 -14 10 0 13 27 13 35 -1z m-215 -60 c0 -5 -18
-9 -40 -9 -45 0 -55 17 -12 22 32 4 52 -1 52 -13z m78 -7 c3 -11 0 -12 -16 -3
-10 6 -22 8 -25 5 -3 -3 -8 0 -12 6 -5 8 2 10 21 8 15 -2 29 -9 32 -16z m-55
-37 c0 -6 -7 -11 -16 -11 -16 -2 -16 -1 -1 3 14 4 15 7 3 15 -11 7 -11 9 -1 6
8 -2 14 -8 15 -13z m187 -11 c0 -2 -12 -4 -26 -4 -14 0 -23 4 -20 9 6 8 46 4
46 -5z m108 -9 c-6 -14 -16 -25 -21 -25 -5 0 -4 7 3 15 7 8 9 15 4 15 -5 0 -2
5 6 10 21 13 21 13 8 -15z m-371 -11 c-3 -3 -12 -4 -19 -1 -8 3 -5 6 6 6 11 1
17 -2 13 -5z m433 -35 c0 -6 -4 -7 -10 -4 -5 3 -10 11 -10 16 0 6 5 7 10 4 6
-3 10 -11 10 -16z m-543 -8 c0 -11 -5 -18 -9 -15 -4 3 -5 11 -1 19 7 21 12 19
10 -4z m28 -1 c3 -5 1 -10 -4 -10 -6 0 -11 5 -11 10 0 6 2 10 4 10 3 0 8 -4
11 -10z m347 -18 c57 -25 123 -93 144 -147 19 -52 15 -129 -10 -153 -14 -14
-19 -12 -53 24 -21 22 -49 47 -62 55 l-25 15 22 22 c38 38 22 102 -25 102 -37
0 -63 -27 -63 -65 l0 -31 -71 -2 -70 -1 6 29 c5 22 1 31 -17 44 -29 20 -47 20
-70 -1 -24 -22 -23 -52 4 -80 12 -13 20 -24 17 -26 -122 -96 -132 -101 -145
-82 -17 22 -18 114 -3 168 17 64 121 127 209 127 32 0 52 5 61 16 17 20 89 14
151 -14z m192 -28 c3 -8 2 -12 -4 -9 -6 3 -10 10 -10 16 0 14 7 11 14 -7z m16
-34 c0 -5 -2 -10 -4 -10 -3 0 -8 5 -11 10 -3 6 -1 10 4 10 6 0 11 -4 11 -10z
m-474 -87 c-10 -10 -19 5 -10 18 6 11 8 11 12 0 2 -7 1 -15 -2 -18z m244 18
c0 -6 -4 -13 -10 -16 -5 -3 -10 1 -10 9 0 9 5 16 10 16 6 0 10 -4 10 -9z m265
-10 c-3 -5 -1 -12 5 -16 6 -4 5 -11 -3 -19 -6 -8 -15 -12 -19 -9 -13 7 -9 41
5 46 18 8 19 8 12 -2z m-282 -97 c21 -14 62 -49 91 -79 30 -29 76 -65 104 -79
51 -26 112 -91 112 -120 0 -22 -28 -76 -39 -76 -5 0 -11 21 -14 46 -7 70 -22
71 -24 2 -4 -99 -61 -163 -184 -209 -158 -58 -439 13 -469 119 -13 47 -13 119
0 127 15 9 12 25 -4 25 -9 0 -19 -20 -27 -50 -13 -50 -13 -50 -32 -31 -20 19
-20 20 6 73 27 55 149 176 235 233 88 58 174 65 245 19z m-466 -46 c-3 -7 -5
-2 -5 12 0 14 2 19 5 13 2 -7 2 -19 0 -25z m716 -18 c3 -12 0 -20 -8 -20 -8 0
-11 8 -8 20 3 11 7 20 8 20 1 0 5 -9 8 -20z m-691 -12 c-7 -7 -12 -8 -12 -2 0
14 12 26 19 19 2 -3 -1 -11 -7 -17z m752 -21 c-3 -9 -12 -17 -20 -17 -8 0 -14
-7 -14 -15 0 -8 -4 -15 -9 -15 -5 0 -11 7 -15 15 -3 9 0 15 8 15 8 0 17 7 20
16 3 9 11 12 18 8 8 -5 9 -2 4 12 -5 14 -4 16 4 8 6 -6 8 -18 4 -27z m63 -159
c-3 -8 -6 -5 -6 6 -1 11 2 17 5 13 3 -3 4 -12 1 -19z m17 -34 c3 -8 2 -12 -4
-9 -6 3 -10 10 -10 16 0 14 7 11 14 -7z m6 -44 c0 -5 -5 -10 -11 -10 -5 0 -7
5 -4 10 3 6 8 10 11 10 2 0 4 -4 4 -10z m-50 -40 c0 -5 -5 -10 -11 -10 -5 0
-7 5 -4 10 3 6 8 10 11 10 2 0 4 -4 4 -10z"/>
<path d="M275 461 c2 -29 14 -73 30 -105 27 -56 39 -67 48 -43 3 6 6 -2 6 -19
1 -23 13 -43 45 -75 64 -65 95 -91 150 -128 39 -27 50 -31 57 -20 6 10 9 11 9
2 0 -7 6 -13 14 -13 8 0 17 -6 19 -12 3 -7 6 -2 6 11 1 24 1 24 16 5 13 -18
14 -16 15 23 0 48 -13 60 -73 66 -20 2 -43 9 -50 15 -7 6 -22 9 -34 6 -24 -7
-61 35 -70 78 -6 30 -47 62 -69 54 -9 -4 -14 2 -14 15 0 13 -4 18 -11 13 -8
-5 -10 1 -7 20 4 18 1 26 -8 26 -8 0 -14 5 -14 11 0 5 5 7 11 3 7 -4 10 1 7
12 -2 11 -13 23 -25 29 -12 5 -28 22 -34 37 -19 45 -27 41 -24 -11z m32 -73
c-3 -8 -6 -5 -6 6 -1 11 2 17 5 13 3 -3 4 -12 1 -19z m83 -108 c0 -5 -4 -10
-10 -10 -5 0 -10 5 -10 10 0 6 5 10 10 10 6 0 10 -4 10 -10z m40 -52 c0 -12
-6 -9 -26 13 -19 22 -19 22 4 8 12 -8 22 -17 22 -21z m30 2 c0 -5 -4 -10 -10
-10 -5 0 -10 5 -10 10 0 6 5 10 10 10 6 0 10 -4 10 -10z m5 -30 c3 -5 1 -10
-4 -10 -6 0 -11 5 -11 10 0 6 2 10 4 10 3 0 8 -4 11 -10z m109 -49 c4 -5 -3
-7 -14 -4 -23 6 -26 13 -6 13 8 0 17 -4 20 -9z m93 -43 c-3 -8 -6 -5 -6 6 -1
11 2 17 5 13 3 -3 4 -12 1 -19z"/>
<path d="M1865 420 c-10 -11 -15 -20 -11 -20 14 0 46 21 46 30 0 16 -16 11
-35 -10z"/>
<path d="M1820 390 c-8 -5 -18 -6 -22 -4 -4 3 -8 -1 -8 -9 0 -19 -46 -60 -70
-62 -11 -1 -20 2 -20 7 0 4 -5 8 -11 8 -6 0 -8 -7 -5 -17 4 -10 4 -14 0 -10
-4 4 -13 -1 -20 -11 -10 -14 -10 -18 4 -25 11 -5 8 -6 -9 -2 -27 5 -62 -14
-90 -49 -15 -18 -19 -19 -34 -6 -14 12 -19 12 -22 3 -3 -7 -13 -13 -22 -13
-10 0 -23 -11 -29 -25 -6 -14 -17 -26 -24 -26 -7 -1 -20 -2 -28 -3 -18 -1 -24
-96 -6 -96 6 0 4 -5 -4 -10 -13 -8 -12 -10 4 -10 26 0 86 22 86 32 0 4 6 5 14
2 8 -3 16 3 19 15 3 13 1 18 -8 15 -22 -9 -28 16 -9 37 11 12 13 19 5 19 -7 0
-9 5 -6 10 4 6 11 8 16 4 5 -3 17 0 25 7 12 10 18 8 35 -10 12 -12 18 -29 15
-37 -7 -18 -3 -18 32 3 16 10 27 23 25 29 -2 6 6 19 17 29 20 18 20 18 14 1
-6 -17 -5 -17 19 -5 73 40 185 177 157 194 -6 3 -10 3 -11 -2 0 -4 -3 0 -7 9
-5 12 -11 15 -22 8z m-150 -174 c0 -3 -4 -8 -10 -11 -5 -3 -10 -1 -10 4 0 6 5
11 10 11 6 0 10 -2 10 -4z"/>
<path d="M137 318 c-9 -12 -28 -66 -42 -118 -15 -52 -31 -99 -36 -104 -5 -6
-18 -5 -34 2 -21 10 -25 9 -25 -4 0 -8 7 -17 15 -20 13 -5 13 -8 0 -27 -30
-43 -22 -47 88 -46 100 0 101 1 70 16 -27 14 -33 23 -39 67 -11 71 -7 143 10
201 17 56 15 68 -7 33z"/>
<path d="M1950 291 c0 -7 4 -21 10 -31 14 -27 21 -136 10 -165 -5 -14 -32 -40
-60 -57 -27 -17 -50 -33 -50 -34 0 -2 45 -4 100 -4 l100 0 0 85 c0 73 -3 91
-24 123 -29 45 -86 100 -86 83z"/>
<path d="M795 101 c5 -8 -1 -10 -19 -5 -26 6 -26 5 -25 -47 1 -42 3 -49 9 -29
8 24 8 24 9 3 1 -22 5 -23 76 -23 l75 0 0 30 c0 28 -29 57 -44 43 -3 -3 -6 -1
-6 5 0 6 -7 9 -15 6 -8 -4 -27 2 -41 11 -15 9 -23 12 -19 6z m-15 -31 c0 -5
-4 -10 -10 -10 -5 0 -10 5 -10 10 0 6 5 10 10 10 6 0 10 -4 10 -10z m45 0 c8
-13 -5 -13 -25 0 -13 8 -13 10 2 10 9 0 20 -4 23 -10z"/>
<path d="M1268 70 c-10 -11 -24 -20 -32 -20 -8 0 -13 -10 -13 -25 0 -23 3 -25
48 -25 l49 0 0 46 c0 39 -2 45 -14 35 -10 -8 -15 -8 -18 -1 -2 6 -11 1 -20
-10z m-1 -46 c-3 -3 -12 -4 -19 -1 -8 3 -5 6 6 6 11 1 17 -2 13 -5z"/>
<path d="M675 10 c-3 -5 -1 -10 4 -10 6 0 11 5 11 10 0 6 -2 10 -4 10 -3 0 -8
-4 -11 -10z"/>
</g>
</svg>
